<svg xmlns="http://www.w3.org/2000/svg" viewBox="0 0 1024 1024" width="1024" height="1024">
  <defs>
    <linearGradient id="bg" x1="0" y1="0" x2="0" y2="1">
      <stop offset="0%" stop-color="#43A047"/>
      <stop offset="100%" stop-color="#2E7D32"/>
    </linearGradient>
  </defs>

  <!-- Background -->
  <rect width="1024" height="1024" rx="224" ry="224" fill="url(#bg)"/>

  <!-- Shield outline (from UXWing, scaled & centered, checkmark removed) -->
  <!-- Original viewBox: 0 0 111.811 122.88 → scale ~5.8x, offset to center -->
  <g transform="translate(190, 158) scale(5.76)">
    <!-- Outer shield -->
    <path d="M55.713,0c20.848,13.215,39.682,19.467,55.846,17.989
             c2.823,57.098-18.263,90.818-55.63,104.891
             C19.844,109.708-1.5,77.439,0.083,17.123
             C19.058,18.116,37.674,14.014,55.713,0L55.713,0z"
          fill="none" stroke="#FFFFFF" stroke-width="3.5" stroke-opacity="0.95"/>
    <!-- Inner shield -->
    <path d="M55.735,7.055c18.454,11.697,35.126,17.232,49.434,15.923
             c2.498,50.541-16.166,80.39-49.241,92.846
             C23.986,104.165,5.091,75.603,6.493,22.211
             C23.29,23.091,39.768,19.46,55.735,7.055L55.735,7.055z"
          fill="none" stroke="#FFFFFF" stroke-width="2.5" stroke-opacity="0.85"/>
  </g>

  <!-- VA text -->
  <text x="512" y="628" text-anchor="middle"
        font-family="SF Pro Display, Helvetica Neue, Arial, sans-serif"
        font-weight="700" font-size="240" letter-spacing="8"
        fill="#FFFFFF" fill-opacity="0.95">VA</text>
</svg>
